<mxfile host="app.diagrams.net" modified="2023-10-16T01:48:27.486Z" agent="Mozilla/5.0 (Windows NT 10.0; Win64; x64; rv:109.0) Gecko/20100101 Firefox/118.0" etag="wUAI9LThTVmIBwZ3xxhW" version="22.0.4" type="github">
  <diagram id="C5RBs43oDa-KdzZeNtuy" name="Page-1">
    <mxGraphModel dx="880" dy="470" grid="1" gridSize="10" guides="1" tooltips="1" connect="1" arrows="1" fold="1" page="1" pageScale="1" pageWidth="827" pageHeight="1169" math="0" shadow="0">
      <root>
        <mxCell id="WIyWlLk6GJQsqaUBKTNV-0" />
        <mxCell id="WIyWlLk6GJQsqaUBKTNV-1" parent="WIyWlLk6GJQsqaUBKTNV-0" />
        <mxCell id="zW10om-nvWaCUiHkReDn-26" style="edgeStyle=orthogonalEdgeStyle;rounded=0;orthogonalLoop=1;jettySize=auto;html=1;entryX=0.5;entryY=0;entryDx=0;entryDy=0;" edge="1" parent="WIyWlLk6GJQsqaUBKTNV-1" source="zW10om-nvWaCUiHkReDn-11" target="zW10om-nvWaCUiHkReDn-23">
          <mxGeometry relative="1" as="geometry" />
        </mxCell>
        <mxCell id="zW10om-nvWaCUiHkReDn-11" value="Mulai" style="ellipse;whiteSpace=wrap;html=1;" vertex="1" parent="WIyWlLk6GJQsqaUBKTNV-1">
          <mxGeometry x="370" width="190" height="80" as="geometry" />
        </mxCell>
        <mxCell id="zW10om-nvWaCUiHkReDn-28" style="edgeStyle=orthogonalEdgeStyle;rounded=0;orthogonalLoop=1;jettySize=auto;html=1;" edge="1" parent="WIyWlLk6GJQsqaUBKTNV-1" source="zW10om-nvWaCUiHkReDn-23">
          <mxGeometry relative="1" as="geometry">
            <mxPoint x="465" y="250" as="targetPoint" />
          </mxGeometry>
        </mxCell>
        <mxCell id="zW10om-nvWaCUiHkReDn-23" value="&lt;div&gt;Menetap kan &lt;br&gt;&lt;/div&gt;&lt;div&gt;bilangan ganjil dan&lt;/div&gt;&lt;div&gt;genap&lt;br&gt;&lt;/div&gt;" style="rounded=1;whiteSpace=wrap;html=1;" vertex="1" parent="WIyWlLk6GJQsqaUBKTNV-1">
          <mxGeometry x="380" y="130" width="170" height="80" as="geometry" />
        </mxCell>
        <mxCell id="zW10om-nvWaCUiHkReDn-30" style="edgeStyle=orthogonalEdgeStyle;rounded=0;orthogonalLoop=1;jettySize=auto;html=1;" edge="1" parent="WIyWlLk6GJQsqaUBKTNV-1" source="zW10om-nvWaCUiHkReDn-29">
          <mxGeometry relative="1" as="geometry">
            <mxPoint x="465" y="370" as="targetPoint" />
          </mxGeometry>
        </mxCell>
        <mxCell id="zW10om-nvWaCUiHkReDn-29" value="Di bagi 2" style="rounded=0;whiteSpace=wrap;html=1;" vertex="1" parent="WIyWlLk6GJQsqaUBKTNV-1">
          <mxGeometry x="405" y="250" width="120" height="60" as="geometry" />
        </mxCell>
        <mxCell id="zW10om-nvWaCUiHkReDn-35" style="edgeStyle=orthogonalEdgeStyle;rounded=0;orthogonalLoop=1;jettySize=auto;html=1;" edge="1" parent="WIyWlLk6GJQsqaUBKTNV-1" source="zW10om-nvWaCUiHkReDn-31">
          <mxGeometry relative="1" as="geometry">
            <mxPoint x="740" y="580" as="targetPoint" />
          </mxGeometry>
        </mxCell>
        <mxCell id="zW10om-nvWaCUiHkReDn-40" value="bisa" style="edgeLabel;html=1;align=center;verticalAlign=middle;resizable=0;points=[];" vertex="1" connectable="0" parent="zW10om-nvWaCUiHkReDn-35">
          <mxGeometry x="0.7559" y="1" relative="1" as="geometry">
            <mxPoint y="-1" as="offset" />
          </mxGeometry>
        </mxCell>
        <mxCell id="zW10om-nvWaCUiHkReDn-36" value="&lt;div&gt;&lt;br&gt;&lt;/div&gt;&lt;div&gt;&lt;br&gt;&lt;/div&gt;&lt;div&gt;&lt;br&gt;&lt;/div&gt;&lt;div&gt;&lt;br&gt;&lt;/div&gt;&lt;div&gt;&lt;br&gt;&lt;/div&gt;&lt;div&gt;&lt;br&gt;&lt;/div&gt;&lt;div&gt;&lt;br&gt;&lt;/div&gt;" style="edgeStyle=orthogonalEdgeStyle;rounded=0;orthogonalLoop=1;jettySize=auto;html=1;" edge="1" parent="WIyWlLk6GJQsqaUBKTNV-1" source="zW10om-nvWaCUiHkReDn-31">
          <mxGeometry relative="1" as="geometry">
            <mxPoint x="170" y="580" as="targetPoint" />
          </mxGeometry>
        </mxCell>
        <mxCell id="zW10om-nvWaCUiHkReDn-37" value="tidak bisa" style="edgeLabel;html=1;align=center;verticalAlign=middle;resizable=0;points=[];" vertex="1" connectable="0" parent="zW10om-nvWaCUiHkReDn-36">
          <mxGeometry x="0.7418" relative="1" as="geometry">
            <mxPoint as="offset" />
          </mxGeometry>
        </mxCell>
        <mxCell id="zW10om-nvWaCUiHkReDn-31" value="&lt;div&gt;Bilangan di bagi&lt;/div&gt;&lt;div&gt;dengan 2&lt;br&gt;&lt;/div&gt;" style="rhombus;whiteSpace=wrap;html=1;" vertex="1" parent="WIyWlLk6GJQsqaUBKTNV-1">
          <mxGeometry x="380" y="370" width="170" height="80" as="geometry" />
        </mxCell>
        <mxCell id="zW10om-nvWaCUiHkReDn-38" value="ganjil" style="shape=parallelogram;perimeter=parallelogramPerimeter;whiteSpace=wrap;html=1;fixedSize=1;" vertex="1" parent="WIyWlLk6GJQsqaUBKTNV-1">
          <mxGeometry x="110" y="580" width="120" height="30" as="geometry" />
        </mxCell>
        <mxCell id="zW10om-nvWaCUiHkReDn-47" style="edgeStyle=orthogonalEdgeStyle;rounded=0;orthogonalLoop=1;jettySize=auto;html=1;entryX=1;entryY=0.5;entryDx=0;entryDy=0;" edge="1" parent="WIyWlLk6GJQsqaUBKTNV-1" source="zW10om-nvWaCUiHkReDn-39" target="zW10om-nvWaCUiHkReDn-43">
          <mxGeometry relative="1" as="geometry">
            <mxPoint x="740" y="660" as="targetPoint" />
            <Array as="points">
              <mxPoint x="740" y="635" />
              <mxPoint x="741" y="635" />
              <mxPoint x="741" y="655" />
            </Array>
          </mxGeometry>
        </mxCell>
        <mxCell id="zW10om-nvWaCUiHkReDn-39" value="genap" style="shape=parallelogram;perimeter=parallelogramPerimeter;whiteSpace=wrap;html=1;fixedSize=1;" vertex="1" parent="WIyWlLk6GJQsqaUBKTNV-1">
          <mxGeometry x="680" y="580" width="120" height="30" as="geometry" />
        </mxCell>
        <mxCell id="zW10om-nvWaCUiHkReDn-43" value="" style="ellipse;whiteSpace=wrap;html=1;aspect=fixed;" vertex="1" parent="WIyWlLk6GJQsqaUBKTNV-1">
          <mxGeometry x="450" y="640" width="30" height="30" as="geometry" />
        </mxCell>
        <mxCell id="zW10om-nvWaCUiHkReDn-48" value="" style="endArrow=classic;html=1;rounded=0;" edge="1" parent="WIyWlLk6GJQsqaUBKTNV-1">
          <mxGeometry width="50" height="50" relative="1" as="geometry">
            <mxPoint x="169.5" y="610" as="sourcePoint" />
            <mxPoint x="170" y="660" as="targetPoint" />
          </mxGeometry>
        </mxCell>
        <mxCell id="zW10om-nvWaCUiHkReDn-49" value="" style="endArrow=classic;html=1;rounded=0;entryX=0;entryY=0.5;entryDx=0;entryDy=0;" edge="1" parent="WIyWlLk6GJQsqaUBKTNV-1" target="zW10om-nvWaCUiHkReDn-43">
          <mxGeometry width="50" height="50" relative="1" as="geometry">
            <mxPoint x="170" y="654.5" as="sourcePoint" />
            <mxPoint x="230" y="654.5" as="targetPoint" />
          </mxGeometry>
        </mxCell>
        <mxCell id="zW10om-nvWaCUiHkReDn-50" value="" style="endArrow=classic;html=1;rounded=0;" edge="1" parent="WIyWlLk6GJQsqaUBKTNV-1">
          <mxGeometry width="50" height="50" relative="1" as="geometry">
            <mxPoint x="464.5" y="670" as="sourcePoint" />
            <mxPoint x="464.5" y="740" as="targetPoint" />
          </mxGeometry>
        </mxCell>
        <mxCell id="zW10om-nvWaCUiHkReDn-51" value="" style="rounded=1;whiteSpace=wrap;html=1;" vertex="1" parent="WIyWlLk6GJQsqaUBKTNV-1">
          <mxGeometry x="405" y="740" width="120" height="40" as="geometry" />
        </mxCell>
      </root>
    </mxGraphModel>
  </diagram>
</mxfile>
